<svg id="svg" version="1.1" xmlns="http://www.w3.org/2000/svg" xmlns:xlink="http://www.w3.org/1999/xlink" width="400" height="400" viewBox="0, 0, 400,400"><g id="svgg"><path id="path0" d="M230.200 87.184 C 227.056 87.387,225.717 87.672,223.943 88.512 C 222.415 89.237,220.481 89.719,217.950 90.006 C 214.958 90.345,214.013 90.614,213.207 91.360 C 212.128 92.358,210.025 93.200,208.612 93.200 C 208.134 93.200,207.035 93.735,206.171 94.389 C 205.307 95.043,203.753 95.864,202.719 96.215 C 201.550 96.611,200.742 97.153,200.585 97.648 C 200.446 98.085,199.493 98.839,198.466 99.322 C 197.440 99.805,196.150 100.616,195.600 101.124 C 195.050 101.632,194.032 102.290,193.339 102.587 C 192.645 102.884,191.970 103.464,191.839 103.877 C 191.708 104.289,191.060 104.947,190.398 105.337 C 189.737 105.728,188.940 106.542,188.628 107.146 C 188.316 107.750,187.601 108.453,187.041 108.709 C 186.481 108.964,185.748 109.829,185.412 110.632 C 185.077 111.435,184.298 112.666,183.682 113.367 C 183.066 114.069,182.326 115.213,182.038 115.908 C 181.750 116.604,181.185 117.278,180.783 117.405 C 180.346 117.544,179.779 118.458,179.375 119.676 C 179.002 120.797,178.204 122.231,177.600 122.863 C 176.858 123.639,176.351 124.776,176.039 126.363 C 175.745 127.859,175.228 129.063,174.619 129.672 C 173.866 130.425,173.564 131.353,173.206 134.015 C 172.898 136.304,172.337 138.242,171.475 140.000 L 170.200 142.600 170.000 171.086 C 169.813 197.740,169.754 199.618,169.086 200.286 C 168.424 200.948,166.838 201.015,147.351 201.200 L 126.330 201.400 125.362 202.526 L 124.394 203.652 124.497 227.526 L 124.600 251.400 146.018 251.600 C 170.336 251.827,169.337 251.689,169.790 254.892 C 169.923 255.832,169.979 285.580,169.916 321.000 L 169.800 385.400 168.883 385.800 C 168.137 386.125,167.987 386.462,168.083 387.600 L 168.200 389.000 201.069 389.102 C 236.949 389.214,235.200 389.322,235.200 386.998 C 235.200 386.265,234.954 386.025,234.100 385.927 L 233.000 385.800 232.899 319.870 L 232.798 253.941 233.968 252.770 L 235.138 251.600 254.110 251.600 C 273.545 251.600,275.598 251.453,275.601 250.061 C 275.613 244.673,277.018 235.408,278.044 233.950 C 278.623 233.128,278.920 231.343,279.410 225.750 C 280.112 217.731,280.216 217.158,281.307 215.308 C 282.302 213.622,282.863 202.840,282.009 201.811 C 281.565 201.276,278.597 201.200,258.021 201.200 L 234.539 201.200 233.670 200.274 C 232.802 199.351,232.800 199.302,232.803 180.574 C 232.808 157.121,233.357 150.400,235.271 150.400 C 235.435 150.400,235.763 149.681,235.999 148.803 C 236.725 146.108,241.781 140.854,243.686 140.814 C 244.063 140.806,244.989 140.258,245.744 139.596 C 247.843 137.753,249.685 137.551,266.513 137.322 L 282.027 137.110 282.613 135.706 C 283.589 133.372,283.482 90.532,282.500 90.259 C 282.115 90.152,280.540 89.942,279.000 89.792 C 277.460 89.642,274.843 89.092,273.185 88.569 C 268.636 87.136,243.485 86.325,230.200 87.184 " stroke="none" fill="#fafbfc" fill-rule="evenodd"></path><path id="path1" d="M165.067 14.267 C 164.920 14.413,164.800 15.133,164.800 15.867 L 164.800 17.200 157.829 17.200 C 150.411 17.200,149.600 17.400,149.600 19.229 C 149.600 19.941,149.282 20.000,145.429 20.000 C 140.884 20.000,140.000 20.363,140.000 22.229 C 140.000 23.183,139.938 23.200,136.500 23.205 C 131.800 23.213,131.276 23.387,130.965 25.044 L 130.711 26.400 127.755 26.400 L 124.800 26.400 124.800 28.000 L 124.800 29.600 120.829 29.600 C 116.651 29.600,115.600 29.996,115.600 31.572 C 115.600 32.154,115.137 32.334,113.100 32.544 C 110.527 32.810,109.600 33.428,109.600 34.876 C 109.600 35.454,109.277 35.600,108.000 35.600 L 106.400 35.600 106.400 37.200 L 106.400 38.800 103.443 38.800 C 100.368 38.800,100.000 39.011,100.000 40.776 C 100.000 41.352,99.532 41.535,97.522 41.745 C 94.959 42.013,94.417 42.384,94.406 43.877 C 94.401 44.622,94.143 44.773,92.700 44.877 C 91.050 44.996,90.996 45.044,90.876 46.500 C 90.758 47.919,90.677 48.000,89.376 48.000 C 88.081 48.000,88.000 48.079,88.000 49.343 L 88.000 50.686 85.541 50.943 C 82.756 51.234,82.000 51.684,82.000 53.049 C 82.000 53.788,81.785 54.000,81.033 54.000 C 79.296 54.000,78.800 54.409,78.800 55.843 C 78.800 57.160,78.752 57.200,77.200 57.200 C 75.643 57.200,75.600 57.237,75.600 58.576 C 75.600 59.877,75.519 59.958,74.100 60.076 C 72.681 60.193,72.593 60.281,72.476 61.700 C 72.358 63.119,72.277 63.200,70.976 63.200 C 69.637 63.200,69.600 63.243,69.600 64.800 L 69.600 66.400 68.000 66.400 L 66.400 66.400 66.400 68.000 L 66.400 69.600 64.800 69.600 C 63.243 69.600,63.200 69.637,63.200 70.976 C 63.200 72.277,63.119 72.358,61.700 72.476 C 60.281 72.593,60.193 72.681,60.076 74.100 C 59.958 75.519,59.877 75.600,58.576 75.600 C 57.237 75.600,57.200 75.643,57.200 77.200 C 57.200 78.752,57.160 78.800,55.843 78.800 C 54.409 78.800,54.000 79.296,54.000 81.033 C 54.000 81.785,53.788 82.000,53.049 82.000 C 51.684 82.000,51.234 82.756,50.943 85.541 L 50.686 88.000 49.343 88.000 C 48.079 88.000,48.000 88.081,48.000 89.376 C 48.000 90.677,47.919 90.758,46.500 90.876 C 45.044 90.996,44.996 91.050,44.877 92.700 C 44.773 94.143,44.622 94.401,43.877 94.406 C 42.386 94.417,42.013 94.958,41.747 97.501 C 41.497 99.894,41.458 99.961,40.245 100.079 L 39.000 100.200 38.883 103.300 L 38.766 106.400 37.183 106.400 C 35.603 106.400,35.600 106.403,35.600 108.000 C 35.600 109.277,35.454 109.600,34.876 109.600 C 33.428 109.600,32.810 110.527,32.544 113.100 C 32.346 115.019,32.137 115.601,31.643 115.606 C 30.230 115.620,29.802 116.349,29.600 119.085 C 29.414 121.617,29.332 121.809,28.400 121.928 C 26.748 122.140,26.400 123.035,26.400 127.076 L 26.400 130.800 25.280 130.800 C 23.443 130.800,23.200 131.394,23.200 135.880 L 23.200 140.000 22.080 140.000 C 20.231 140.000,20.000 140.584,20.000 145.255 L 20.000 149.549 18.700 149.675 L 17.400 149.800 17.289 155.700 C 17.181 161.496,17.163 161.600,16.289 161.606 C 14.203 161.620,14.209 161.590,14.081 172.985 L 13.963 183.600 13.030 183.600 C 11.018 183.600,11.000 183.751,11.000 200.761 L 11.000 216.600 12.483 216.723 L 13.967 216.846 14.083 228.838 C 14.209 241.737,14.181 241.579,16.300 241.594 C 17.193 241.600,17.200 241.648,17.200 247.557 C 17.200 253.897,17.233 254.000,19.233 254.000 C 19.939 254.000,20.000 254.325,20.000 258.120 C 20.000 262.606,20.243 263.200,22.080 263.200 L 23.200 263.200 23.200 267.171 C 23.200 271.502,23.583 272.400,25.429 272.400 C 26.371 272.400,26.400 272.490,26.400 275.400 L 26.400 278.400 28.000 278.400 L 29.600 278.400 29.600 282.371 C 29.600 286.571,29.995 287.600,31.604 287.600 C 32.179 287.600,32.380 287.946,32.476 289.100 C 32.593 290.519,32.681 290.607,34.100 290.724 L 35.600 290.848 35.600 293.824 L 35.600 296.800 37.200 296.800 L 38.800 296.800 38.800 299.757 C 38.800 302.852,39.006 303.200,40.833 303.200 C 41.443 303.200,41.600 303.487,41.600 304.600 C 41.600 305.967,41.638 306.000,43.200 306.000 L 44.800 306.000 44.800 308.957 C 44.800 312.114,44.985 312.400,47.033 312.400 C 47.872 312.400,48.000 312.586,48.000 313.800 C 48.000 315.122,48.075 315.200,49.344 315.200 L 50.689 315.200 50.908 317.615 C 51.152 320.313,51.670 321.200,52.998 321.200 C 53.734 321.200,53.943 321.483,54.147 322.756 C 54.393 324.298,54.948 324.800,56.407 324.800 C 56.952 324.800,57.183 325.146,57.275 326.100 C 57.385 327.243,57.557 327.415,58.700 327.525 C 59.819 327.633,60.000 327.803,60.000 328.745 C 60.000 330.136,60.665 330.800,62.056 330.800 C 63.033 330.800,63.165 330.962,63.276 332.300 C 63.393 333.719,63.481 333.807,64.900 333.924 C 66.319 334.042,66.400 334.123,66.400 335.424 C 66.400 336.763,66.443 336.800,68.000 336.800 L 69.600 336.800 69.600 338.400 C 69.600 339.962,69.633 340.000,71.000 340.000 C 72.267 340.000,72.400 340.107,72.400 341.120 C 72.400 342.534,73.058 343.200,74.455 343.200 C 75.397 343.200,75.567 343.381,75.675 344.500 C 75.789 345.687,75.931 345.811,77.300 345.924 C 78.576 346.030,78.800 346.190,78.800 346.996 C 78.800 348.590,79.805 349.200,82.429 349.200 L 84.800 349.200 84.800 350.800 L 84.800 352.400 86.400 352.400 C 87.962 352.400,88.000 352.433,88.000 353.800 C 88.000 355.133,88.067 355.200,89.400 355.200 C 90.548 355.200,90.800 355.349,90.800 356.026 C 90.800 357.970,91.451 358.400,94.390 358.400 L 97.152 358.400 97.276 359.900 C 97.393 361.319,97.481 361.407,98.900 361.524 C 100.166 361.629,100.400 361.793,100.400 362.575 C 100.400 363.913,101.168 364.367,103.920 364.655 C 106.292 364.903,106.361 364.943,106.479 366.155 L 106.600 367.400 109.500 367.518 C 112.370 367.634,112.400 367.646,112.400 368.738 C 112.400 370.416,113.080 370.800,116.056 370.800 L 118.752 370.800 118.876 372.300 L 119.000 373.800 121.876 373.917 L 124.752 374.034 124.876 375.317 L 125.000 376.600 129.477 376.713 L 133.953 376.826 134.077 378.313 L 134.200 379.800 137.300 379.917 C 140.248 380.028,140.400 380.079,140.400 380.968 C 140.400 382.667,141.325 382.969,147.049 383.136 C 151.880 383.277,152.400 383.363,152.400 384.014 C 152.400 385.983,152.461 386.000,159.625 386.000 L 166.363 386.000 166.391 321.478 L 166.418 256.956 165.498 256.092 C 164.586 255.235,164.439 255.228,144.697 255.115 L 124.815 255.000 123.507 253.692 L 122.200 252.384 122.200 227.292 C 122.200 213.492,122.331 201.736,122.490 201.169 C 123.033 199.240,123.481 199.200,144.719 199.195 C 155.653 199.192,165.005 199.081,165.500 198.948 L 166.400 198.707 166.400 175.279 C 166.400 152.355,166.417 151.833,167.205 150.995 C 167.896 150.259,168.041 149.409,168.235 144.969 C 168.509 138.700,169.023 135.777,170.031 134.769 C 170.516 134.284,170.954 132.955,171.240 131.104 C 171.726 127.958,172.275 126.599,173.516 125.476 C 174.035 125.006,174.410 123.981,174.590 122.539 C 174.826 120.651,175.039 120.227,176.031 119.662 C 176.796 119.227,177.278 118.566,177.435 117.738 C 177.567 117.043,178.193 115.946,178.826 115.298 C 179.459 114.651,180.333 113.290,180.769 112.273 C 181.325 110.975,181.857 110.351,182.557 110.175 C 183.249 110.001,183.634 109.557,183.817 108.720 C 183.971 108.020,184.526 107.259,185.141 106.903 C 185.723 106.566,186.563 105.730,187.006 105.045 C 187.450 104.360,188.201 103.744,188.675 103.676 C 189.215 103.599,189.694 103.106,189.954 102.361 C 190.222 101.592,190.791 101.022,191.558 100.755 C 192.212 100.527,193.038 99.896,193.393 99.354 C 193.748 98.812,194.688 98.060,195.481 97.684 C 196.275 97.308,197.429 96.529,198.048 95.953 C 198.666 95.377,199.752 94.790,200.462 94.648 C 201.185 94.503,202.300 93.792,202.997 93.031 C 203.965 91.974,204.680 91.610,206.221 91.390 C 207.601 91.194,208.570 90.758,209.424 89.949 C 210.466 88.963,211.169 88.724,214.159 88.338 C 216.455 88.041,217.743 87.692,217.883 87.327 C 218.408 85.959,220.477 85.497,227.417 85.199 C 233.122 84.954,234.460 84.779,235.415 84.153 C 237.358 82.879,250.283 82.777,252.031 84.022 C 253.250 84.890,253.724 84.931,265.946 85.233 C 280.790 85.599,284.599 86.358,286.485 89.324 C 286.963 90.075,286.871 136.719,286.391 137.617 C 285.471 139.337,284.946 139.391,267.272 139.600 C 251.687 139.784,250.312 139.856,249.952 140.500 C 249.456 141.387,247.829 142.215,245.897 142.565 C 244.978 142.732,244.160 143.195,243.791 143.757 C 243.460 144.263,242.754 144.875,242.224 145.116 C 241.693 145.358,240.975 146.154,240.628 146.884 C 240.282 147.614,239.602 148.388,239.117 148.605 C 238.419 148.918,238.131 149.576,237.731 151.764 C 237.358 153.809,236.937 154.830,236.113 155.690 L 235.000 156.852 235.000 177.926 L 235.000 199.000 259.600 199.213 C 273.130 199.330,284.569 199.567,285.020 199.739 C 286.847 200.435,287.001 203.305,285.379 206.440 C 284.937 207.296,284.564 209.919,284.200 214.745 C 283.649 222.027,283.370 223.373,282.155 224.588 C 281.576 225.167,281.381 226.358,281.116 230.950 C 280.708 238.009,280.227 240.707,279.176 241.825 C 278.484 242.562,278.306 243.459,278.056 247.461 C 277.707 253.044,277.744 252.962,274.988 254.223 L 272.851 255.200 254.044 255.200 L 235.236 255.200 235.005 256.500 C 234.878 257.215,234.824 286.600,234.887 321.800 L 235.000 385.800 242.148 385.909 C 249.759 386.026,250.400 385.889,250.400 384.151 C 250.400 383.211,250.446 383.200,254.567 383.200 C 259.681 383.200,260.000 383.093,260.000 381.370 L 260.000 380.026 264.500 379.913 L 269.000 379.800 269.124 378.300 L 269.248 376.800 272.224 376.800 L 275.200 376.800 275.200 375.453 L 275.200 374.107 279.185 373.915 C 283.451 373.710,284.400 373.316,284.400 371.751 C 284.400 370.906,284.590 370.795,286.100 370.753 C 289.306 370.663,290.173 370.309,290.399 368.997 C 290.584 367.914,290.765 367.788,292.302 367.677 C 293.942 367.558,294.000 367.508,294.000 366.195 L 294.000 364.835 296.900 364.718 L 299.800 364.600 299.924 363.100 L 300.048 361.600 302.250 361.600 C 305.084 361.600,306.000 361.108,306.000 359.586 C 306.000 358.469,306.093 358.400,307.600 358.400 L 309.200 358.400 309.200 356.800 L 309.200 355.200 311.571 355.200 C 314.108 355.200,315.200 354.589,315.200 353.171 C 315.200 352.622,315.479 352.400,316.167 352.400 C 317.896 352.400,318.400 351.989,318.400 350.581 C 318.400 349.330,318.492 349.241,319.900 349.124 C 321.319 349.007,321.407 348.919,321.524 347.500 C 321.645 346.042,321.692 346.000,323.224 346.000 C 324.746 346.000,324.800 345.954,324.800 344.657 L 324.800 343.314 327.278 343.055 C 329.851 342.786,330.384 342.418,330.394 340.900 C 330.398 340.228,330.634 340.000,331.324 340.000 C 332.572 340.000,333.516 339.205,333.672 338.024 C 333.766 337.305,334.141 336.959,335.091 336.715 C 336.094 336.456,336.456 336.094,336.715 335.091 C 336.959 334.141,337.305 333.766,338.024 333.672 C 339.484 333.480,340.000 332.501,340.000 329.924 L 340.000 327.600 341.600 327.600 C 343.162 327.600,343.200 327.567,343.200 326.200 C 343.200 324.867,343.267 324.800,344.600 324.800 C 345.963 324.800,346.000 324.758,346.000 323.224 C 346.000 321.692,346.042 321.645,347.500 321.524 C 348.919 321.407,349.007 321.319,349.124 319.900 C 349.241 318.492,349.330 318.400,350.581 318.400 C 351.989 318.400,352.400 317.896,352.400 316.167 C 352.400 315.479,352.622 315.200,353.171 315.200 C 354.589 315.200,355.200 314.108,355.200 311.571 L 355.200 309.200 356.800 309.200 L 358.400 309.200 358.400 307.600 C 358.400 306.323,358.546 306.000,359.124 306.000 C 360.569 306.000,361.190 305.073,361.454 302.521 L 361.710 300.042 363.155 299.921 L 364.600 299.800 364.717 296.924 L 364.834 294.048 366.117 293.924 C 367.286 293.811,367.418 293.658,367.600 292.202 C 367.775 290.801,367.947 290.579,368.997 290.399 C 370.423 290.154,370.682 289.318,370.753 284.724 L 370.800 281.648 372.300 281.524 L 373.800 281.400 373.917 278.300 L 374.034 275.200 375.417 275.200 L 376.800 275.200 376.800 272.200 C 376.800 269.290,376.829 269.200,377.771 269.200 C 379.609 269.200,380.000 268.297,380.000 264.054 L 380.000 260.165 381.300 259.783 C 382.917 259.307,383.089 258.614,383.153 252.325 L 383.200 247.651 384.500 247.525 L 385.800 247.400 385.909 239.900 C 386.014 232.649,386.045 232.400,386.835 232.400 C 389.380 232.400,389.200 234.753,389.200 201.429 C 389.200 168.476,389.369 170.800,386.976 170.800 L 386.018 170.800 385.909 163.300 L 385.800 155.800 384.500 155.675 L 383.200 155.549 383.195 150.475 C 383.188 144.098,383.082 143.689,381.356 143.365 L 380.000 143.111 380.000 138.970 C 380.000 134.529,379.747 134.000,377.626 134.000 C 376.865 134.000,376.800 133.765,376.800 131.000 L 376.800 128.000 375.400 128.000 L 374.000 128.000 373.953 124.900 C 373.882 120.255,373.634 119.469,372.100 119.017 C 370.951 118.679,370.800 118.470,370.798 117.217 C 370.794 114.514,370.092 112.864,368.888 112.725 C 367.846 112.605,367.792 112.485,367.600 109.885 C 367.397 107.132,366.972 106.419,365.524 106.406 C 365.033 106.402,364.814 105.989,364.724 104.900 C 364.607 103.481,364.519 103.393,363.100 103.276 L 361.600 103.152 361.600 100.950 C 361.600 98.116,361.108 97.200,359.586 97.200 C 358.469 97.200,358.400 97.107,358.400 95.600 C 358.400 94.003,358.397 94.000,356.818 94.000 L 355.235 94.000 355.118 91.100 L 355.000 88.200 353.723 88.076 C 352.566 87.964,352.434 87.813,352.323 86.476 C 352.207 85.085,352.114 84.993,350.700 84.876 C 349.242 84.755,349.200 84.708,349.200 83.176 C 349.200 81.604,349.196 81.600,347.600 81.600 L 346.000 81.600 345.994 79.300 C 345.987 76.591,345.726 76.072,344.166 75.654 C 343.482 75.471,342.941 75.024,342.857 74.571 C 342.640 73.401,342.002 72.800,340.975 72.800 C 340.193 72.800,340.029 72.566,339.924 71.300 C 339.807 69.886,339.715 69.793,338.323 69.677 C 336.935 69.562,336.838 69.465,336.723 68.077 C 336.611 66.733,336.483 66.589,335.300 66.475 C 334.235 66.372,334.000 66.178,334.000 65.403 C 334.000 64.119,332.987 63.200,331.571 63.200 C 330.625 63.200,330.399 63.027,330.394 62.300 C 330.385 61.040,329.956 60.503,328.827 60.340 C 328.145 60.242,327.761 59.851,327.544 59.034 C 327.130 57.476,326.609 57.213,323.924 57.206 L 321.648 57.200 321.524 55.700 C 321.407 54.286,321.315 54.193,319.923 54.077 C 318.535 53.962,318.438 53.865,318.323 52.477 C 318.207 51.089,318.111 50.993,316.724 50.877 C 315.387 50.766,315.236 50.634,315.124 49.477 C 315.015 48.354,314.831 48.176,313.600 48.000 C 312.474 47.839,312.175 47.604,312.072 46.800 C 311.882 45.320,310.914 44.800,308.348 44.800 L 306.048 44.800 305.924 43.300 L 305.800 41.800 302.900 41.682 L 300.000 41.565 300.000 40.182 C 300.000 38.840,299.955 38.800,298.424 38.800 C 296.892 38.800,296.845 38.758,296.724 37.300 L 296.600 35.800 293.700 35.682 C 290.830 35.566,290.800 35.554,290.800 34.462 C 290.800 32.812,290.111 32.400,287.345 32.400 L 284.851 32.400 284.725 31.100 L 284.600 29.800 281.523 29.684 L 278.446 29.567 278.323 28.084 L 278.200 26.600 273.723 26.487 L 269.247 26.374 269.123 24.887 L 269.000 23.400 265.900 23.283 C 262.952 23.172,262.800 23.121,262.800 22.232 C 262.800 20.533,261.875 20.231,256.151 20.064 C 251.320 19.923,250.800 19.837,250.800 19.186 C 250.800 17.239,250.674 17.200,244.357 17.200 L 238.400 17.200 238.400 16.014 C 238.400 15.251,238.124 14.681,237.626 14.414 C 236.761 13.951,165.527 13.806,165.067 14.267 " stroke="none" fill="#1c74f4" fill-rule="evenodd"></path><path id="path2" d="M234.400 85.249 C 232.530 85.440,229.020 85.785,226.600 86.016 C 223.101 86.350,221.702 86.678,219.768 87.618 C 218.431 88.268,216.889 88.800,216.341 88.800 C 214.905 88.800,211.113 89.977,210.342 90.663 C 209.980 90.985,208.559 91.589,207.184 92.005 C 205.809 92.421,204.215 93.200,203.642 93.736 C 203.069 94.272,202.150 94.844,201.600 95.008 C 201.050 95.172,199.924 95.912,199.099 96.653 C 198.273 97.394,197.339 98.000,197.023 98.000 C 196.707 98.000,195.633 98.706,194.635 99.570 C 193.638 100.433,192.466 101.252,192.031 101.390 C 191.596 101.528,190.856 102.262,190.387 103.021 C 189.918 103.779,189.388 104.400,189.208 104.400 C 188.727 104.400,184.800 108.326,184.800 108.807 C 184.800 109.033,184.103 109.979,183.252 110.909 C 182.400 111.839,181.334 113.332,180.881 114.227 C 180.429 115.121,179.751 116.109,179.375 116.421 C 178.998 116.733,178.362 117.756,177.960 118.694 C 177.557 119.632,177.081 120.400,176.900 120.400 C 176.339 120.400,175.253 122.578,174.795 124.624 C 174.554 125.699,173.847 127.349,173.224 128.289 C 172.491 129.395,171.991 130.807,171.805 132.295 C 171.648 133.558,171.205 135.224,170.822 135.996 C 168.726 140.223,168.284 146.638,168.119 175.255 L 167.982 199.110 166.214 199.555 C 165.034 199.852,157.874 200.000,144.699 200.000 C 129.057 200.000,124.804 200.109,124.237 200.524 C 122.976 201.446,122.835 204.155,122.817 227.878 L 122.800 251.155 123.765 252.278 L 124.730 253.400 145.136 253.600 C 165.109 253.796,165.566 253.818,166.671 254.643 L 167.800 255.486 168.000 320.843 C 168.110 356.789,168.335 385.870,168.500 385.467 C 168.968 384.325,168.868 256.860,168.398 255.169 C 167.766 252.894,166.817 252.800,144.431 252.800 C 125.917 252.800,124.890 252.762,124.250 252.055 C 123.352 251.063,123.418 202.021,124.319 201.120 C 124.727 200.712,129.423 200.557,146.200 200.400 C 162.970 200.243,167.672 200.088,168.080 199.681 C 168.491 199.270,168.650 193.683,168.839 173.081 C 169.088 146.045,169.382 140.779,170.803 137.995 C 171.211 137.195,171.806 135.154,172.126 133.460 C 172.478 131.595,173.121 129.754,173.754 128.798 C 174.329 127.928,174.800 126.945,174.800 126.613 C 174.800 125.524,176.265 122.123,177.344 120.709 C 177.925 119.948,178.400 119.127,178.400 118.887 C 178.400 118.646,179.120 117.617,180.000 116.600 C 180.880 115.583,181.600 114.534,181.600 114.268 C 181.600 114.003,182.320 112.914,183.200 111.849 C 184.080 110.784,184.800 109.797,184.800 109.656 C 184.800 109.256,189.072 104.800,189.457 104.799 C 189.646 104.798,190.160 104.245,190.600 103.569 C 191.040 102.894,192.042 102.008,192.827 101.600 C 193.611 101.192,194.499 100.562,194.800 100.200 C 195.101 99.838,196.079 99.175,196.973 98.728 C 197.868 98.280,199.140 97.422,199.800 96.820 C 200.460 96.218,201.630 95.485,202.400 95.190 C 203.170 94.895,204.274 94.266,204.853 93.792 C 205.433 93.318,206.783 92.689,207.853 92.393 C 208.924 92.098,210.430 91.451,211.200 90.955 C 211.970 90.459,213.957 89.778,215.615 89.441 C 217.273 89.104,219.809 88.384,221.250 87.842 C 231.873 83.843,280.048 85.705,284.634 90.291 C 285.358 91.016,285.481 132.530,284.767 135.364 C 284.014 138.357,283.776 138.400,267.686 138.402 C 253.533 138.405,250.135 138.650,247.875 139.834 C 247.174 140.202,245.605 140.998,244.390 141.605 C 240.318 143.635,235.555 150.330,234.377 155.678 C 234.070 157.071,233.844 164.787,233.720 178.137 L 233.531 198.475 234.435 199.437 L 235.339 200.400 258.651 200.400 C 283.336 200.400,284.000 200.448,284.000 202.221 C 284.000 206.764,282.509 216.646,281.137 221.200 C 280.689 222.687,280.262 225.598,280.139 228.000 C 279.991 230.892,279.556 233.508,278.744 236.400 C 278.095 238.710,277.378 242.490,277.151 244.800 C 276.636 250.022,276.188 251.821,275.296 252.259 C 274.913 252.446,265.692 252.690,254.805 252.800 L 235.010 253.000 234.405 254.200 C 233.361 256.270,233.282 386.000,234.325 386.000 C 234.476 386.000,234.554 356.824,234.498 321.165 C 234.441 285.506,234.543 255.761,234.723 255.065 L 235.050 253.800 254.825 253.600 C 278.824 253.357,276.890 253.921,277.395 247.020 C 277.555 244.831,277.925 242.221,278.217 241.220 C 278.509 240.219,279.028 238.423,279.370 237.229 C 279.712 236.036,280.181 232.714,280.412 229.849 C 280.693 226.369,281.149 223.703,281.784 221.819 C 282.802 218.802,283.408 215.335,283.817 210.200 C 283.957 208.440,284.296 205.793,284.571 204.318 C 285.428 199.709,287.145 200.000,259.075 200.000 C 238.963 200.000,235.225 199.912,234.824 199.429 C 234.468 199.000,234.381 193.445,234.475 177.129 L 234.600 155.400 235.672 153.400 C 236.261 152.300,237.086 150.589,237.506 149.598 C 238.494 147.263,242.757 143.008,245.366 141.753 C 246.485 141.214,247.932 140.482,248.582 140.126 C 250.421 139.117,254.724 138.845,269.200 138.820 C 281.622 138.799,282.691 138.742,283.842 138.040 C 285.923 136.771,286.000 135.845,286.000 112.205 L 286.000 90.764 285.049 89.813 C 284.526 89.289,283.311 88.647,282.349 88.385 C 281.387 88.123,279.803 87.660,278.830 87.355 C 273.872 85.803,243.216 84.350,234.400 85.249 " stroke="none" fill="#74acf4" fill-rule="evenodd"></path><path id="path3" d="M236.902 83.590 C 236.189 83.759,235.333 84.123,235.001 84.399 C 234.604 84.728,232.033 85.001,227.482 85.196 C 220.475 85.497,218.410 85.956,217.883 87.327 C 217.743 87.692,216.455 88.041,214.159 88.338 C 211.169 88.724,210.466 88.963,209.424 89.949 C 208.570 90.758,207.601 91.194,206.221 91.390 C 204.680 91.610,203.965 91.974,202.997 93.031 C 202.300 93.792,201.185 94.503,200.462 94.648 C 199.752 94.790,198.666 95.377,198.048 95.953 C 197.429 96.529,196.275 97.308,195.481 97.684 C 194.688 98.060,193.748 98.812,193.393 99.354 C 193.038 99.896,192.212 100.527,191.558 100.755 C 190.791 101.022,190.222 101.592,189.954 102.361 C 189.694 103.106,189.215 103.599,188.675 103.676 C 188.201 103.744,187.450 104.360,187.006 105.045 C 186.563 105.730,185.723 106.566,185.141 106.903 C 184.526 107.259,183.971 108.020,183.817 108.720 C 183.634 109.557,183.249 110.001,182.557 110.175 C 181.857 110.351,181.325 110.975,180.769 112.273 C 180.333 113.290,179.459 114.651,178.826 115.298 C 178.193 115.946,177.567 117.043,177.435 117.738 C 177.278 118.566,176.796 119.227,176.031 119.662 C 175.039 120.227,174.826 120.651,174.590 122.539 C 174.410 123.981,174.035 125.006,173.516 125.476 C 172.275 126.599,171.726 127.958,171.240 131.104 C 170.954 132.955,170.516 134.284,170.031 134.769 C 169.023 135.777,168.509 138.700,168.235 144.969 C 168.041 149.409,167.896 150.259,167.205 150.995 C 166.417 151.833,166.400 152.355,166.400 175.279 L 166.400 198.707 165.500 198.948 C 165.005 199.081,155.653 199.192,144.719 199.195 C 123.481 199.200,123.033 199.240,122.490 201.169 C 122.331 201.736,122.200 213.492,122.200 227.292 L 122.200 252.384 123.507 253.692 L 124.815 255.000 144.697 255.115 C 164.440 255.228,164.586 255.235,165.499 256.093 L 166.418 256.956 166.388 321.378 L 166.358 385.800 167.180 385.928 L 168.002 386.056 167.901 320.771 L 167.800 255.486 166.671 254.643 C 165.566 253.818,165.109 253.796,145.136 253.600 L 124.730 253.400 123.765 252.278 L 122.800 251.155 122.817 227.878 C 122.835 204.155,122.976 201.446,124.237 200.524 C 124.804 200.109,129.057 200.000,144.699 200.000 C 157.874 200.000,165.034 199.852,166.214 199.555 L 167.982 199.110 168.119 175.255 C 168.284 146.638,168.726 140.223,170.822 135.996 C 171.205 135.224,171.648 133.558,171.805 132.295 C 171.991 130.807,172.491 129.395,173.224 128.289 C 173.847 127.349,174.554 125.699,174.795 124.624 C 175.253 122.578,176.339 120.400,176.900 120.400 C 177.081 120.400,177.557 119.632,177.960 118.694 C 178.362 117.756,178.998 116.733,179.375 116.421 C 179.751 116.109,180.429 115.121,180.881 114.227 C 181.334 113.332,182.400 111.839,183.252 110.909 C 184.103 109.979,184.800 109.033,184.800 108.807 C 184.800 108.326,188.727 104.400,189.208 104.400 C 189.388 104.400,189.918 103.779,190.387 103.021 C 190.856 102.262,191.596 101.528,192.031 101.390 C 192.466 101.252,193.638 100.433,194.635 99.570 C 195.633 98.706,196.707 98.000,197.023 98.000 C 197.339 98.000,198.273 97.394,199.099 96.653 C 199.924 95.912,201.050 95.172,201.600 95.008 C 202.150 94.844,203.069 94.272,203.642 93.736 C 204.215 93.200,205.809 92.421,207.184 92.005 C 208.559 91.589,209.980 90.985,210.342 90.663 C 211.113 89.977,214.905 88.800,216.341 88.800 C 216.889 88.800,218.431 88.270,219.768 87.622 C 222.305 86.394,223.285 86.244,235.800 85.168 C 241.059 84.717,243.837 84.759,260.800 85.546 C 271.248 86.032,276.185 86.527,278.830 87.355 C 279.803 87.660,281.387 88.123,282.349 88.385 C 283.311 88.647,284.526 89.289,285.049 89.813 L 286.000 90.764 286.000 112.205 C 286.000 135.845,285.923 136.771,283.842 138.040 C 282.691 138.742,281.622 138.799,269.200 138.820 C 254.724 138.845,250.421 139.117,248.582 140.126 C 247.932 140.482,246.485 141.214,245.366 141.753 C 242.757 143.008,238.494 147.263,237.506 149.598 C 237.086 150.589,236.261 152.300,235.672 153.400 L 234.600 155.400 234.475 177.129 C 234.381 193.445,234.468 199.000,234.824 199.429 C 235.225 199.912,238.963 200.000,259.075 200.000 C 287.145 200.000,285.428 199.709,284.571 204.318 C 284.296 205.793,283.957 208.440,283.817 210.200 C 283.408 215.335,282.802 218.802,281.784 221.819 C 281.149 223.703,280.693 226.369,280.412 229.849 C 280.181 232.714,279.723 235.991,279.396 237.129 C 279.068 238.268,278.549 240.064,278.243 241.120 C 277.937 242.176,277.555 244.831,277.395 247.020 C 276.890 253.921,278.825 253.357,254.818 253.600 L 235.036 253.800 234.758 254.800 C 234.380 256.160,234.323 385.505,234.700 385.738 C 234.865 385.840,234.949 357.096,234.886 321.862 C 234.823 286.628,234.877 257.215,235.004 256.500 L 235.236 255.200 254.044 255.200 L 272.851 255.200 274.988 254.223 C 277.744 252.962,277.707 253.044,278.056 247.461 C 278.306 243.459,278.484 242.562,279.176 241.825 C 280.227 240.707,280.708 238.009,281.116 230.950 C 281.381 226.358,281.576 225.167,282.155 224.588 C 283.370 223.373,283.649 222.027,284.200 214.745 C 284.564 209.919,284.937 207.296,285.379 206.440 C 287.001 203.305,286.847 200.435,285.020 199.739 C 284.569 199.567,273.130 199.330,259.600 199.213 L 235.000 199.000 235.000 177.926 L 235.000 156.852 236.113 155.690 C 236.937 154.830,237.358 153.809,237.731 151.764 C 238.131 149.576,238.419 148.918,239.117 148.605 C 239.602 148.388,240.282 147.614,240.628 146.884 C 240.975 146.154,241.693 145.358,242.224 145.116 C 242.754 144.875,243.460 144.263,243.791 143.757 C 244.160 143.195,244.978 142.732,245.897 142.565 C 247.829 142.215,249.456 141.387,249.952 140.500 C 250.312 139.856,251.687 139.784,267.272 139.600 C 284.946 139.391,285.471 139.337,286.391 137.617 C 286.871 136.719,286.963 90.075,286.485 89.324 C 284.599 86.358,280.790 85.599,265.946 85.233 C 253.902 84.936,253.235 84.879,252.085 84.060 C 250.807 83.150,240.146 82.820,236.902 83.590 " stroke="none" fill="#549cf4" fill-rule="evenodd"></path><path id="path4" d="M233.000 85.844 C 227.993 86.167,223.815 86.877,221.268 87.835 C 219.817 88.381,217.273 89.104,215.615 89.441 C 213.957 89.778,211.970 90.459,211.200 90.955 C 210.430 91.451,208.924 92.098,207.853 92.393 C 206.783 92.689,205.433 93.318,204.853 93.792 C 204.274 94.266,203.170 94.895,202.400 95.190 C 201.630 95.485,200.460 96.218,199.800 96.820 C 199.140 97.422,197.868 98.280,196.973 98.728 C 196.079 99.175,195.101 99.838,194.800 100.200 C 194.499 100.562,193.611 101.192,192.827 101.600 C 192.042 102.008,191.040 102.894,190.600 103.569 C 190.160 104.245,189.646 104.798,189.457 104.799 C 189.072 104.800,184.800 109.256,184.800 109.656 C 184.800 109.797,184.080 110.784,183.200 111.849 C 182.320 112.914,181.600 114.003,181.600 114.268 C 181.600 114.534,180.880 115.583,180.000 116.600 C 179.120 117.617,178.400 118.646,178.400 118.887 C 178.400 119.127,177.925 119.948,177.344 120.709 C 176.265 122.123,174.800 125.524,174.800 126.613 C 174.800 126.945,174.329 127.928,173.754 128.798 C 173.121 129.754,172.478 131.595,172.126 133.460 C 171.806 135.154,171.211 137.195,170.803 137.995 C 169.382 140.779,169.088 146.045,168.839 173.081 C 168.650 193.683,168.491 199.270,168.080 199.681 C 167.672 200.088,162.970 200.243,146.200 200.400 C 129.423 200.557,124.727 200.712,124.319 201.120 C 123.418 202.021,123.352 251.063,124.250 252.055 C 124.890 252.762,125.917 252.800,144.431 252.800 C 166.933 252.800,167.777 252.885,168.407 255.226 C 168.668 256.196,168.771 279.153,168.704 321.356 C 168.647 356.910,168.699 386.000,168.820 386.000 C 169.972 386.000,170.000 384.445,170.000 320.370 C 170.000 284.802,169.885 255.125,169.745 254.423 C 169.211 251.755,169.771 251.822,146.018 251.600 L 124.600 251.400 124.497 227.526 L 124.394 203.652 125.362 202.526 L 126.330 201.400 147.351 201.200 C 166.838 201.015,168.424 200.948,169.086 200.286 C 169.754 199.618,169.813 197.740,170.000 171.086 L 170.200 142.600 171.475 140.000 C 172.337 138.242,172.898 136.304,173.206 134.015 C 173.564 131.353,173.866 130.425,174.619 129.672 C 175.228 129.063,175.745 127.859,176.039 126.363 C 176.351 124.776,176.858 123.639,177.600 122.863 C 178.204 122.231,179.002 120.797,179.375 119.676 C 179.779 118.458,180.346 117.544,180.783 117.405 C 181.185 117.278,181.750 116.604,182.038 115.908 C 182.326 115.213,183.066 114.069,183.682 113.367 C 184.298 112.666,185.077 111.435,185.412 110.632 C 185.748 109.829,186.481 108.964,187.041 108.709 C 187.601 108.453,188.316 107.750,188.628 107.146 C 188.940 106.542,189.737 105.728,190.398 105.337 C 191.060 104.947,191.708 104.289,191.839 103.877 C 191.970 103.464,192.645 102.884,193.339 102.587 C 194.032 102.290,195.050 101.632,195.600 101.124 C 196.150 100.616,197.440 99.805,198.466 99.322 C 199.493 98.839,200.446 98.085,200.585 97.648 C 200.742 97.153,201.550 96.611,202.719 96.215 C 203.753 95.864,205.307 95.043,206.171 94.389 C 207.035 93.735,208.134 93.200,208.612 93.200 C 210.025 93.200,212.128 92.358,213.207 91.360 C 214.013 90.614,214.958 90.345,217.960 90.005 C 220.513 89.715,222.358 89.254,223.753 88.558 C 228.340 86.266,266.082 86.264,273.200 88.555 C 274.850 89.086,277.460 89.643,279.000 89.792 C 280.540 89.942,282.115 90.152,282.500 90.259 C 283.482 90.532,283.589 133.372,282.613 135.706 L 282.027 137.110 266.513 137.322 C 249.685 137.551,247.843 137.753,245.744 139.596 C 244.989 140.258,244.063 140.806,243.686 140.814 C 241.781 140.854,236.725 146.108,235.999 148.803 C 235.763 149.681,235.435 150.400,235.271 150.400 C 233.356 150.400,232.808 157.119,232.803 180.630 L 232.800 199.461 233.726 200.330 L 234.652 201.200 258.077 201.200 C 278.603 201.200,281.565 201.276,282.009 201.811 C 282.863 202.840,282.302 213.622,281.307 215.308 C 280.216 217.158,280.112 217.731,279.410 225.750 C 278.920 231.343,278.623 233.128,278.044 233.950 C 277.018 235.408,275.613 244.673,275.601 250.061 C 275.598 251.453,273.545 251.600,254.110 251.600 L 235.138 251.600 233.968 252.770 L 232.798 253.941 232.899 319.837 C 232.966 363.322,233.136 385.779,233.400 385.867 C 233.666 385.955,233.800 364.056,233.800 320.700 C 233.800 263.203,233.872 255.257,234.405 254.200 L 235.010 253.000 254.805 252.800 C 265.692 252.690,274.913 252.446,275.296 252.259 C 276.188 251.821,276.636 250.022,277.151 244.800 C 277.378 242.490,278.095 238.710,278.744 236.400 C 279.556 233.508,279.991 230.892,280.139 228.000 C 280.262 225.598,280.689 222.687,281.137 221.200 C 282.509 216.646,284.000 206.764,284.000 202.221 C 284.000 200.448,283.336 200.400,258.651 200.400 L 235.339 200.400 234.435 199.437 L 233.531 198.475 233.720 178.137 C 233.844 164.787,234.070 157.071,234.377 155.678 C 235.555 150.330,240.318 143.635,244.390 141.605 C 245.605 140.998,247.174 140.202,247.875 139.834 C 250.135 138.650,253.533 138.405,267.686 138.402 C 283.776 138.400,284.014 138.357,284.767 135.364 C 285.481 132.530,285.358 91.016,284.634 90.291 C 283.181 88.838,274.199 86.875,266.800 86.394 C 260.449 85.980,236.834 85.596,233.000 85.844 " stroke="none" fill="#9cc4fc" fill-rule="evenodd"></path></g></svg>