<svg id="svg" xmlns="http://www.w3.org/2000/svg" xmlns:xlink="http://www.w3.org/1999/xlink" width="400" height="400" viewBox="0, 0, 400,400"><g id="svgg"><path id="path0" d="M284.600 46.222 C 252.219 49.502,234.264 64.335,228.185 92.829 C 226.436 101.026,226.280 103.525,226.037 127.200 L 225.800 150.200 209.400 150.400 L 193.000 150.600 192.897 177.896 L 192.794 205.191 209.297 205.296 L 225.800 205.400 225.901 285.500 L 226.002 365.600 258.800 365.600 L 291.598 365.600 291.699 285.500 L 291.800 205.400 313.859 205.297 L 335.917 205.193 336.185 201.897 C 336.332 200.083,336.715 196.260,337.037 193.400 C 337.359 190.540,337.886 185.590,338.207 182.400 C 338.528 179.210,339.148 173.270,339.584 169.200 C 341.350 152.723,341.514 150.988,341.337 150.700 C 341.236 150.535,330.003 150.400,316.376 150.400 L 291.600 150.400 291.600 134.229 C 291.600 113.463,292.035 110.052,295.191 106.060 C 298.926 101.334,302.128 100.711,323.700 100.506 L 341.200 100.341 341.200 72.970 L 341.200 45.600 315.500 45.648 C 297.466 45.681,288.249 45.852,284.600 46.222 " stroke="none" fill="#3c5b9b" fill-rule="evenodd"></path><path id="path1" d="M0.000 200.000 L 0.000 400.000 200.000 400.000 L 400.000 400.000 400.000 200.000 L 400.000 0.000 200.000 0.000 L 0.000 0.000 0.000 200.000 M341.903 72.777 C 341.959 87.835,341.869 100.287,341.703 100.448 C 341.536 100.610,333.660 100.820,324.200 100.915 C 292.529 101.234,292.432 101.329,292.099 132.500 L 291.912 150.000 316.956 150.000 L 342.000 150.000 341.972 151.300 C 341.956 152.015,341.791 153.950,341.606 155.600 C 340.845 162.359,339.565 174.582,339.007 180.400 C 338.680 183.810,338.238 187.680,338.024 189.000 C 337.811 190.320,337.536 192.750,337.414 194.400 C 337.292 196.050,336.980 199.243,336.721 201.497 L 336.250 205.593 314.225 205.697 L 292.200 205.800 292.099 285.902 L 291.998 366.005 258.699 365.902 L 225.400 365.800 225.200 285.800 L 225.000 205.800 208.800 205.754 L 192.600 205.708 192.497 177.854 L 192.395 150.000 208.797 150.000 C 224.157 150.000,225.199 149.956,225.187 149.300 C 225.049 141.999,225.653 106.640,225.970 103.488 C 226.573 97.479,228.509 88.183,230.069 83.800 C 238.094 61.256,254.821 49.079,282.000 45.998 C 287.496 45.374,288.985 45.347,316.000 45.374 L 341.800 45.400 341.903 72.777 " stroke="none" fill="#fbfbfb" fill-rule="evenodd"></path><path id="path2" d="M318.700 45.498 L 341.200 45.607 341.200 72.999 L 341.200 100.391 325.100 100.502 L 309.000 100.613 325.200 100.607 L 341.400 100.600 341.400 73.000 L 341.400 45.400 318.800 45.395 L 296.200 45.390 318.700 45.498 M286.905 45.887 C 287.514 45.979,288.414 45.977,288.905 45.882 C 289.397 45.787,288.900 45.711,287.800 45.714 C 286.700 45.717,286.297 45.795,286.905 45.887 M282.700 46.282 C 283.195 46.378,284.005 46.378,284.500 46.282 C 284.995 46.187,284.590 46.109,283.600 46.109 C 282.610 46.109,282.205 46.187,282.700 46.282 M258.800 52.200 C 258.250 52.514,257.980 52.772,258.200 52.772 C 258.420 52.772,259.050 52.514,259.600 52.200 C 260.150 51.886,260.420 51.628,260.200 51.628 C 259.980 51.628,259.350 51.886,258.800 52.200 M250.200 57.035 L 249.000 58.066 250.300 57.206 C 251.015 56.733,251.600 56.268,251.600 56.173 C 251.600 55.873,251.431 55.978,250.200 57.035 M242.981 62.900 L 241.400 64.600 243.194 63.000 C 244.180 62.120,245.065 61.355,245.161 61.300 C 245.256 61.245,245.160 61.200,244.948 61.200 C 244.736 61.200,243.851 61.965,242.981 62.900 M233.800 75.600 C 233.459 76.260,233.269 76.800,233.379 76.800 C 233.489 76.800,233.859 76.260,234.200 75.600 C 234.541 74.940,234.731 74.400,234.621 74.400 C 234.511 74.400,234.141 74.940,233.800 75.600 M227.856 92.484 C 227.721 92.988,227.627 93.760,227.646 94.200 C 227.665 94.640,227.845 94.298,228.046 93.440 C 228.436 91.778,228.270 90.940,227.856 92.484 M226.501 101.800 C 226.505 102.680,226.587 102.993,226.683 102.495 C 226.779 101.998,226.775 101.278,226.675 100.895 C 226.575 100.513,226.496 100.920,226.501 101.800 M226.114 105.400 C 226.117 106.500,226.195 106.903,226.287 106.295 C 226.379 105.686,226.377 104.786,226.282 104.295 C 226.187 103.803,226.111 104.300,226.114 105.400 M225.786 129.400 C 225.786 140.840,225.837 145.462,225.900 139.672 C 225.962 133.882,225.962 124.522,225.900 118.872 C 225.837 113.222,225.786 117.960,225.786 129.400 M291.783 133.600 C 291.783 142.950,291.836 146.775,291.900 142.100 C 291.964 137.425,291.964 129.775,291.900 125.100 C 291.836 120.425,291.783 124.250,291.783 133.600 M192.497 177.900 L 192.600 205.400 209.099 205.504 L 225.598 205.609 225.700 285.604 L 225.803 365.600 225.801 285.500 L 225.800 205.400 209.295 205.296 L 192.789 205.191 192.895 177.796 C 192.953 162.728,192.864 150.400,192.697 150.400 C 192.531 150.400,192.441 162.775,192.497 177.900 M341.293 153.200 C 341.293 153.970,341.375 154.285,341.476 153.900 C 341.576 153.515,341.576 152.885,341.476 152.500 C 341.375 152.115,341.293 152.430,341.293 153.200 M340.893 157.200 C 340.893 157.970,340.975 158.285,341.076 157.900 C 341.176 157.515,341.176 156.885,341.076 156.500 C 340.975 156.115,340.893 156.430,340.893 157.200 M340.493 161.200 C 340.493 161.970,340.575 162.285,340.676 161.900 C 340.776 161.515,340.776 160.885,340.676 160.500 C 340.575 160.115,340.493 160.430,340.493 161.200 M340.109 164.800 C 340.109 165.790,340.187 166.195,340.282 165.700 C 340.378 165.205,340.378 164.395,340.282 163.900 C 340.187 163.405,340.109 163.810,340.109 164.800 M339.693 168.400 C 339.693 169.170,339.775 169.485,339.876 169.100 C 339.976 168.715,339.976 168.085,339.876 167.700 C 339.775 167.315,339.693 167.630,339.693 168.400 M339.293 172.400 C 339.293 173.170,339.375 173.485,339.476 173.100 C 339.576 172.715,339.576 172.085,339.476 171.700 C 339.375 171.315,339.293 171.630,339.293 172.400 M338.509 179.600 C 338.509 180.590,338.587 180.995,338.682 180.500 C 338.778 180.005,338.778 179.195,338.682 178.700 C 338.587 178.205,338.509 178.610,338.509 179.600 M338.101 183.400 C 338.105 184.280,338.187 184.593,338.283 184.095 C 338.379 183.598,338.375 182.878,338.275 182.495 C 338.175 182.113,338.096 182.520,338.101 183.400 M337.301 191.400 C 337.305 192.280,337.387 192.593,337.483 192.095 C 337.579 191.598,337.575 190.878,337.475 190.495 C 337.375 190.113,337.296 190.520,337.301 191.400 M336.901 194.600 C 336.905 195.480,336.987 195.793,337.083 195.295 C 337.179 194.798,337.175 194.078,337.075 193.695 C 336.975 193.313,336.896 193.720,336.901 194.600 M336.493 198.400 C 336.493 199.170,336.575 199.485,336.676 199.100 C 336.776 198.715,336.776 198.085,336.676 197.700 C 336.575 197.315,336.493 197.630,336.493 198.400 M291.785 205.700 C 291.680 205.975,291.641 242.110,291.698 286.000 L 291.802 365.800 291.901 285.703 L 292.000 205.607 314.100 205.500 L 336.200 205.393 314.087 205.297 C 296.694 205.221,291.934 205.307,291.785 205.700 " stroke="none" fill="#9aacc5" fill-rule="evenodd"></path><path id="path3" d="M292.707 45.490 C 293.426 45.579,294.506 45.577,295.107 45.486 C 295.708 45.395,295.120 45.322,293.800 45.324 C 292.480 45.326,291.988 45.401,292.707 45.490 M242.500 365.900 C 251.465 365.960,266.135 365.960,275.100 365.900 C 284.065 365.840,276.730 365.791,258.800 365.791 C 240.870 365.791,233.535 365.840,242.500 365.900 " stroke="none" fill="#adbedd" fill-rule="evenodd"></path><path id="path4" d="M341.505 72.691 C 341.589 94.302,341.504 100.242,341.105 100.752 C 340.656 101.328,340.678 101.339,341.300 100.851 C 342.041 100.270,342.433 45.915,341.700 45.462 C 341.535 45.360,341.447 57.613,341.505 72.691 M243.375 62.100 L 242.200 63.400 243.500 62.225 C 244.215 61.579,244.800 60.994,244.800 60.925 C 244.800 60.616,244.470 60.888,243.375 62.100 M309.907 101.090 C 310.626 101.179,311.706 101.177,312.307 101.086 C 312.908 100.995,312.320 100.922,311.000 100.924 C 309.680 100.926,309.188 101.001,309.907 101.090 M303.256 101.659 C 302.517 101.872,301.983 102.117,302.070 102.203 C 302.157 102.290,303.121 102.116,304.214 101.816 C 305.306 101.517,305.840 101.272,305.400 101.272 C 304.960 101.272,303.995 101.446,303.256 101.659 M225.383 131.400 C 225.383 140.640,225.436 144.363,225.500 139.673 C 225.564 134.983,225.564 127.423,225.499 122.873 C 225.435 118.323,225.383 122.160,225.383 131.400 M292.109 118.000 C 292.109 118.990,292.187 119.395,292.282 118.900 C 292.378 118.405,292.378 117.595,292.282 117.100 C 292.187 116.605,292.109 117.010,292.109 118.000 M192.900 150.276 C 193.285 150.376,193.915 150.376,194.300 150.276 C 194.685 150.175,194.370 150.093,193.600 150.093 C 192.830 150.093,192.515 150.175,192.900 150.276 M202.300 150.299 C 206.095 150.365,212.305 150.365,216.100 150.299 C 219.895 150.234,216.790 150.180,209.200 150.180 C 201.610 150.180,198.505 150.234,202.300 150.299 M305.500 150.300 C 311.715 150.362,321.885 150.362,328.100 150.300 C 334.315 150.238,329.230 150.187,316.800 150.187 C 304.370 150.187,299.285 150.238,305.500 150.300 M341.301 157.000 C 341.305 157.880,341.387 158.193,341.483 157.695 C 341.579 157.198,341.575 156.478,341.475 156.095 C 341.375 155.713,341.296 156.120,341.301 157.000 M339.701 171.800 C 339.705 172.680,339.787 172.993,339.883 172.495 C 339.979 171.998,339.975 171.278,339.875 170.895 C 339.775 170.513,339.696 170.920,339.701 171.800 M338.493 183.200 C 338.493 183.970,338.575 184.285,338.676 183.900 C 338.776 183.515,338.776 182.885,338.676 182.500 C 338.575 182.115,338.493 182.430,338.493 183.200 M338.101 186.600 C 338.105 187.480,338.187 187.793,338.283 187.295 C 338.379 186.798,338.375 186.078,338.275 185.695 C 338.175 185.313,338.096 185.720,338.101 186.600 M336.893 198.400 C 336.893 199.170,336.975 199.485,337.076 199.100 C 337.176 198.715,337.176 198.085,337.076 197.700 C 336.975 197.315,336.893 197.630,336.893 198.400 M225.200 285.667 C 225.361 350.111,225.500 365.754,225.910 365.837 C 226.190 365.894,226.236 365.849,226.010 365.737 C 225.732 365.599,225.600 339.779,225.600 285.567 C 225.600 241.585,225.465 205.600,225.300 205.600 C 225.135 205.600,225.090 241.630,225.200 285.667 " stroke="none" fill="#c4cce4" fill-rule="evenodd"></path></g></svg>