<?xml version="1.0" encoding="UTF-8"?>
<svg xmlns="http://www.w3.org/2000/svg" xmlns:xlink="http://www.w3.org/1999/xlink" width="15pt" height="15pt" viewBox="0 0 15 15" version="1.1">
<g id="surface1">
<path style=" stroke:none;fill-rule:nonzero;fill:rgb(14.117647%,63.529412%,80.784314%);fill-opacity:1;" d="M 12.390625 8.144531 C 12.417969 7.9375 12.429688 7.730469 12.429688 7.5 C 12.429688 7.28125 12.417969 7.0625 12.382812 6.855469 L 13.773438 5.773438 C 13.898438 5.675781 13.929688 5.492188 13.855469 5.359375 L 12.539062 3.085938 C 12.457031 2.9375 12.285156 2.886719 12.136719 2.9375 L 10.5 3.589844 C 10.160156 3.328125 9.796875 3.109375 9.390625 2.945312 L 9.140625 1.203125 C 9.117188 1.039062 8.976562 0.921875 8.8125 0.921875 L 6.183594 0.921875 C 6.019531 0.921875 5.886719 1.039062 5.859375 1.203125 L 5.613281 2.945312 C 5.210938 3.113281 4.84375 3.335938 4.507812 3.589844 L 2.871094 2.933594 C 2.722656 2.875 2.550781 2.933594 2.46875 3.082031 L 1.160156 5.355469 C 1.078125 5.496094 1.101562 5.675781 1.242188 5.769531 L 2.632812 6.851562 C 2.597656 7.0625 2.570312 7.285156 2.570312 7.5 C 2.570312 7.714844 2.582031 7.9375 2.617188 8.144531 L 1.230469 9.226562 C 1.105469 9.324219 1.074219 9.507812 1.148438 9.640625 L 2.464844 11.914062 C 2.546875 12.0625 2.71875 12.113281 2.867188 12.0625 L 4.5 11.410156 C 4.839844 11.671875 5.203125 11.890625 5.609375 12.054688 L 5.859375 13.796875 C 5.890625 13.960938 6.023438 14.078125 6.1875 14.078125 L 8.816406 14.078125 C 8.980469 14.078125 9.117188 13.960938 9.140625 13.796875 L 9.386719 12.054688 C 9.792969 11.890625 10.160156 11.671875 10.496094 11.410156 L 12.132812 12.066406 C 12.28125 12.125 12.453125 12.066406 12.535156 11.917969 L 13.851562 9.644531 C 13.933594 9.496094 13.902344 9.324219 13.769531 9.230469 Z M 7.5 9.964844 C 6.144531 9.964844 5.035156 8.855469 5.035156 7.5 C 5.035156 6.144531 6.144531 5.035156 7.5 5.035156 C 8.855469 5.035156 9.964844 6.144531 9.964844 7.5 C 9.964844 8.855469 8.855469 9.964844 7.5 9.964844 Z M 7.5 9.964844 "/>
</g>
</svg>
